<svg id="图层_1" data-name="图层 1" xmlns="http://www.w3.org/2000/svg" xmlns:xlink="http://www.w3.org/1999/xlink" viewBox="0 0 128 128"><defs><style>.cls-1{fill:none;}.cls-2{clip-path:url(#clip-path);}.cls-3{fill:#ff6054;}.cls-4{fill:#ffb764;}.cls-5{fill:#f3ff64;}.cls-6{fill:#caffad;}.cls-7{fill:#a5fffb;}.cls-8{fill:#b2aaff;}</style><clipPath id="clip-path"><path class="cls-1" d="M106.1,52.79V86a10,10,0,0,1-10,10H31.9a10,10,0,0,1-10-10V52.79a10,10,0,0,1,8-9.81l6.21-11.9a2,2,0,0,1,3.46-.15L47,42.63l.09.16H81.31a2,2,0,0,1,.11-.2l7.44-11.7a2,2,0,0,1,3.47.15l6.3,12.08A10,10,0,0,1,106.1,52.79Z"/></clipPath></defs><g class="cls-2"><rect class="cls-3" x="-12.8" y="28.65" width="100.02" height="16.61" transform="translate(-14.92 31.26) rotate(-38.57)"/><rect class="cls-4" x="-2.45" y="41.64" width="100.02" height="16.61" transform="translate(-20.76 40.55) rotate(-38.57)"/><rect class="cls-5" x="7.91" y="54.62" width="100.02" height="16.61" transform="translate(-26.6 49.83) rotate(-38.57)"/><rect class="cls-6" x="18.26" y="67.6" width="100.02" height="16.61" transform="translate(-32.43 59.12) rotate(-38.57)"/><rect class="cls-7" x="28.61" y="80.59" width="100.02" height="16.61" transform="translate(-38.27 68.4) rotate(-38.57)"/><rect class="cls-8" x="38.96" y="93.57" width="100.02" height="16.61" transform="translate(-44.1 77.69) rotate(-38.57)"/></g></svg>